<svg width="390" height="298" viewBox="0 0 390 298" fill="none" xmlns="http://www.w3.org/2000/svg">
<path d="M363.653 284.41C414.28 232.645 392.363 152.326 294.28 134.002C196.198 115.678 175.047 5.91452 85.8487 28.8097C-3.35 51.7039 -37.2154 220.275 54.3225 284.41H363.653Z" fill="#FFF8F8"/>
<path d="M357.419 271.133H363.656V114.931H357.419V271.133Z" fill="#3B364D"/>
<path d="M128.273 284.41C128.273 286.674 108.425 288.509 83.9411 288.509C59.4579 288.509 39.6094 286.674 39.6094 284.41C39.6094 282.146 59.457 280.311 83.9411 280.311C108.425 280.311 128.273 282.146 128.273 284.41Z" fill="#FFE5E2"/>
<path d="M248.335 297.276C295.922 297.276 334.499 293.478 334.499 288.792C334.499 284.107 295.922 280.309 248.335 280.309C200.749 280.309 162.172 284.107 162.172 288.792C162.172 293.478 200.749 297.276 248.335 297.276Z" fill="#FFE5E2"/>
<path d="M133.155 125.315H12.9717C7.3216 125.315 2.74219 120.734 2.74219 115.085V10.8682C2.74219 5.21808 7.32255 0.638672 12.9717 0.638672H133.155C138.805 0.638672 143.384 5.21903 143.384 10.8682V115.085C143.385 120.734 138.805 125.315 133.155 125.315Z" fill="#AAB2C8"/>
<path d="M133.852 10.9453H12.2812V115.008H133.852V10.9453Z" fill="#E0E7FF"/>
<path d="M73.0625 10.9453V115.008" stroke="#AAB2C8" stroke-miterlimit="10"/>
<path d="M133.852 62.9766H12.2812" stroke="#AAB2C8" stroke-miterlimit="10"/>
<path opacity="0.54" d="M65.466 10.9453L24.6953 114.931H42.7267L83.9367 10.9453H65.466Z" fill="white"/>
<path opacity="0.54" d="M96.9894 10.9453L56.2188 114.931H74.2502L115.46 10.9453H96.9894Z" fill="white"/>
<path d="M386.875 109.348H267.164V120.514H386.875V109.348Z" fill="#773C4D"/>
<path d="M386.878 109.348H310.523V120.514H386.878V109.348Z" fill="#965363"/>
<path d="M354.145 109.348H293.077C290.951 109.348 289.227 107.624 289.227 105.497V95.2642C289.227 93.138 290.951 91.4141 293.077 91.4141H354.145V109.348Z" fill="#61648A"/>
<path d="M355.184 95.207H293.938V105.558H355.184V95.207Z" fill="#EDF1FC"/>
<path d="M337.516 95.207H293.797V105.558H337.516V95.207Z" fill="#E0E7FF"/>
<path d="M344.121 91.4159H283.053C280.927 91.4159 279.203 89.692 279.203 87.5658V77.3325C279.203 75.2064 280.927 73.4824 283.053 73.4824H344.121V91.4159Z" fill="#FFC55A"/>
<path d="M345.005 77.2754H283.758V87.6266H345.005V77.2754Z" fill="#EDF1FC"/>
<path d="M327.781 77.2754H283.758V87.6266H327.781V77.2754Z" fill="#E0E7FF"/>
<path d="M357.973 73.4823H296.905C294.779 73.4823 293.055 71.7584 293.055 69.6322V59.3989C293.055 57.2728 294.779 55.5488 296.905 55.5488H357.973V73.4823Z" fill="#AF2F48"/>
<path d="M359.067 59.3398H297.82V69.6911H359.067V59.3398Z" fill="#EDF1FC"/>
<path d="M338.892 59.3398H297.609V69.6911H338.892V59.3398Z" fill="#E0E7FF"/>
<path d="M289.964 201.701C290.047 215.044 288.788 227.756 285.34 239.201C285.34 239.209 285.332 239.217 285.332 239.226C275.669 271.264 248.802 293.341 185.977 291.295C100.71 288.518 85.2209 209.235 78.0694 135.106C72.2605 74.9573 90.3424 30.6874 144.624 16.1181C157.245 12.7282 171.83 10.9473 188.521 10.9473C265.252 10.9473 289.642 150.976 289.964 201.701Z" fill="#FFC55A"/>
<path d="M285.332 239.225C275.669 271.263 248.802 293.34 185.977 291.294C100.71 288.517 85.2209 209.234 78.0694 135.105C72.2605 74.9564 90.3423 30.6865 144.624 16.1172C98.0083 44.5341 86.4314 96.3045 105.483 175.057C124.527 253.81 172.593 276.716 203.72 276.765C234.838 276.824 273.904 266.664 285.332 239.225Z" fill="#F49947"/>
<path d="M166.912 85.2855C106.092 96.1131 132.625 182.99 146.07 207.316C159.513 231.643 165.244 260.451 196.308 261.732C227.373 263.012 267.065 248.928 270.905 238.684C274.746 228.442 257.171 175.052 257.171 175.052C257.171 175.052 254.74 121.019 237.905 106.829C221.072 92.6405 187.115 81.6893 166.912 85.2855Z" fill="#F49947"/>
<path d="M248.351 231.804C237.241 252.571 199.374 259.87 186.398 256.583C178.76 254.646 169.596 247.71 161.264 237.754C155.943 228.381 151.68 217.456 146.076 207.315C143.969 203.504 141.546 198.166 139.189 191.829C134.555 169.52 134.692 143.029 143.403 134.001C155.232 121.761 166.713 113.138 167.538 105.556C168.176 99.6054 161.425 91.7569 162.782 86.1781C164.107 85.8387 165.488 85.5401 166.917 85.29C183.557 82.3271 209.524 89.2305 227.578 99.6863C229.314 106.266 229.467 115.084 233.553 117.942C239.835 122.318 249.548 149.762 252.01 162.648C254.464 175.535 248.351 231.804 248.351 231.804Z" fill="#F27C49"/>
<path d="M330.95 264.746C331.441 272.562 354.053 262.586 357.046 258.264C357.046 258.264 344.663 293.844 338.218 293.844C331.773 293.844 314.203 275.312 314.203 275.312L316.312 264.746H330.95Z" fill="#AF2F48"/>
<path d="M338.222 293.843C331.207 296.852 348.736 252.609 357.049 253.606C365.363 254.604 347.28 289.957 338.222 293.843Z" fill="#D35473"/>
<path d="M333.637 213.516C333.182 236.388 327.24 264.747 327.24 264.747H312.596C312.596 264.747 303.596 245.446 299.378 226.021C298.317 221.147 297.563 216.266 297.323 211.683C297.323 211.683 274.633 218.545 252.681 214.427C243.549 212.72 233.206 209.819 224.239 207.01C211.659 203.082 201.789 199.336 201.789 199.336L202.535 198.391L218.545 178.137L261.639 171.657L266.686 170.895L297.324 180.392C324.497 183.325 334.101 190.642 333.637 213.516Z" fill="#31344C"/>
<path opacity="0.54" d="M299.376 226.021C298.315 221.148 297.561 216.267 297.321 211.684C297.321 211.684 274.63 218.545 252.679 214.427C243.546 212.72 233.204 209.819 224.237 207.01L202.533 198.391L200.635 197.637L197.039 182.654L243.389 166.461L261.638 171.657L292.292 180.379C284.883 193.688 299.792 209.43 303.065 214.163C306.339 218.894 315.645 211.254 321.546 214.163C327.445 217.07 304.067 215.678 299.376 226.021Z" fill="#232433"/>
<path d="M308.023 277.551C314.757 292.179 324.733 299.162 330.053 296.834L327.726 272.56L318.087 268.402L308.023 277.551Z" fill="#AF2F48"/>
<path d="M330.048 296.836C318.2 298.811 320.405 275.883 321.07 264.745C321.735 253.608 331.047 254.605 332.044 263.251C333.042 271.896 338.03 295.506 330.048 296.836Z" fill="#D35473"/>
<path d="M318.093 268.401L308.033 277.551C266.862 265.658 242.623 228.151 242.623 228.151C219.75 254.678 194.135 260.629 173.523 228.151C173.523 228.151 174.824 213.715 191.54 202.585C194.78 200.414 198.608 198.375 203.117 196.593C220.992 189.516 244.768 188.14 259.42 188.057C268.262 188.008 276.541 192.317 281.645 199.535C290.264 211.718 298.477 226.825 304.925 239.786C312.848 255.722 318.093 268.401 318.093 268.401Z" fill="#383952"/>
<path opacity="0.54" d="M318.093 268.401L308.033 277.551C266.862 265.658 242.623 228.151 242.623 228.151C219.75 254.678 194.135 260.629 173.523 228.151C173.523 228.151 174.824 213.715 191.54 202.585L208.793 199.395C188.656 238.941 237.069 229.717 245.804 222.507C254.539 215.289 262.785 208.063 266.688 207.665C270.592 207.268 250.006 222.474 264.525 239.787C279.035 257.107 312.524 267.896 304.925 239.787C312.848 255.722 318.093 268.401 318.093 268.401Z" fill="#232433"/>
<path d="M217.752 71.4396H217.139C217.139 71.4396 211.039 94.7845 200.639 103.486C198.766 105.052 196.753 106.147 194.606 106.544C180.576 109.138 168.352 93.1519 166.04 82.1883C164.747 76.0561 167.026 72.2935 169.289 70.1797C171.062 68.489 172.836 67.8348 172.836 67.8348C172.836 67.8348 173.755 50.5394 179.78 50.8541C185.573 51.1527 184.603 53.4481 184.528 53.6221C184.901 53.1248 197.506 36.3685 206.174 38.1913C214.975 40.0474 208.801 53.0088 208.801 53.0088C208.801 53.0088 219.914 41.7466 223.619 48.2268C227.324 54.707 216.368 62.5803 216.368 62.5803C216.368 62.5803 225.782 62.431 226.71 65.8285C227.631 69.2183 226.246 72.4665 217.752 71.4396Z" fill="#6D3744"/>
<path d="M200.639 103.486C198.766 105.052 196.753 106.147 194.606 106.544C180.576 109.138 168.352 93.1519 166.04 82.1883C164.747 76.0561 167.026 72.2935 169.289 70.1797C171.377 72.8897 174.17 78.3258 180.542 71.4396H183.502L200.639 103.486Z" fill="#542633"/>
<path d="M237.905 172.93L173.837 232.324C170.721 229.523 168.011 226.598 165.666 223.556H165.657C161.306 217.938 158.174 211.938 155.952 205.681C154.287 200.983 153.126 196.143 152.364 191.211C150.607 179.958 150.847 168.19 151.56 156.505C153.226 129.14 161.497 110.866 194.347 110.402C194.347 110.402 209.405 106.193 220.551 112.2C229.319 116.916 235.029 151.788 237.068 166.456C237.622 170.436 237.905 172.93 237.905 172.93Z" fill="#61648A"/>
<path opacity="0.36" d="M224.261 145.882C190.533 158.531 176.57 134 176.57 134L165.664 173.201L189 180.392L229.629 176.162L224.261 145.882Z" fill="#383952"/>
<path opacity="0.36" d="M237.907 172.932L173.839 232.326C170.723 229.525 168.013 226.6 165.668 223.558C176.814 222.713 200.756 196.061 194.466 194.669C188.839 193.433 169.472 206.611 155.956 205.683C154.29 200.984 153.13 196.144 152.367 191.213L172.953 173.197L237.07 166.459C237.625 170.437 237.907 172.932 237.907 172.932Z" fill="#383952"/>
<path d="M201.796 165.043C209.321 159.957 218.08 164.196 221.188 166.456C224.296 168.716 221.188 174.65 221.188 174.65C221.188 174.65 217.797 172.672 216.668 172.39C215.538 172.107 210.09 176.345 199.252 174.65C188.412 172.953 201.796 165.043 201.796 165.043Z" fill="#F4B8AB"/>
<path d="M157.826 129.551C172.583 118.545 180.942 128.215 180.228 147.236C179.514 166.255 179.514 166.255 179.514 166.255C179.514 166.255 198.335 160.25 202.939 160.25C202.939 160.25 203.34 173.263 202.939 177.935C202.939 177.935 180.182 199.957 165.165 201.626C150.15 203.295 153.153 173.597 151.818 159.916C150.484 146.235 152.699 133.374 157.826 129.551Z" fill="#61648A"/>
<path d="M218.586 175.528L229.781 130.184C230.922 125.561 235.069 122.312 239.831 122.312H304.068C308.285 122.312 311.372 126.287 310.328 130.374L297.365 177.788L218.586 175.528Z" fill="#C3C9F4"/>
<path d="M223.086 175.528L234.281 130.184C235.422 125.561 239.569 122.312 244.331 122.312H308.568C312.785 122.312 315.872 126.287 314.828 130.374L301.865 177.788L223.086 175.528Z" fill="#E0E7FF"/>
<path d="M283.303 180.05H201.581C200.332 180.05 199.32 179.038 199.32 177.79C199.32 176.541 200.332 175.529 201.581 175.529H283.303C284.552 175.529 285.564 176.541 285.564 177.79C285.563 179.037 284.551 180.05 283.303 180.05Z" fill="#C3C9F4"/>
<path d="M302.568 180.05H220.846C219.598 180.05 218.586 179.038 218.586 177.79C218.586 176.541 219.598 175.529 220.846 175.529H302.568C303.817 175.529 304.828 176.541 304.828 177.79C304.828 179.037 303.817 180.05 302.568 180.05Z" fill="#E0E7FF"/>
<path d="M275.243 149.921C274.166 155.816 271.494 160.266 269.275 159.861C267.055 159.456 266.13 154.348 267.207 148.452C268.285 142.557 270.957 138.107 273.176 138.512C275.395 138.918 276.321 144.026 275.243 149.921Z" fill="#C3C9F4"/>
<path d="M221.414 75.2334C222.838 96.1108 219.516 105.363 207.654 106.549V111.413C207.654 115.017 204.733 117.937 201.13 117.937C197.527 117.937 194.606 115.016 194.606 111.413V106.549C194.606 106.549 185.116 102.516 183.219 96.5853C181.321 90.6547 183.219 95.6363 183.219 95.6363L182.375 71.4375H221.723L221.414 75.2334Z" fill="#F4B8AB"/>
<path d="M183.82 86.5411C180.836 81.1012 177.327 83.3823 176.624 86.5411C175.923 89.6999 182.24 97.3897 183.82 94.6854C185.399 91.9811 183.82 86.5411 183.82 86.5411Z" fill="#F4B8AB"/>
<path d="M177.273 68.7583C183.625 76.4765 201.634 80.4902 208.151 78.6379C214.668 76.7856 205.407 70.7656 205.407 70.7656C205.407 70.7656 217.493 79.101 223.027 76.3225C228.561 73.5441 213.64 66.752 213.64 66.752L177.273 68.7583Z" fill="#6D3744"/>
<path d="M198.855 85.2813C198.855 86.3976 198.655 87.3019 198.408 87.3019C198.161 87.3019 197.961 86.3967 197.961 85.2813C197.961 84.165 198.162 83.2598 198.408 83.2598C198.654 83.2607 198.855 84.165 198.855 85.2813Z" stroke="#191918" stroke-width="2" stroke-miterlimit="10"/>
<path d="M211.676 85.2813C211.676 86.3976 211.475 87.3019 211.229 87.3019C210.982 87.3019 210.781 86.3967 210.781 85.2813C210.781 84.165 210.982 83.2598 211.229 83.2598C211.475 83.2607 211.676 84.165 211.676 85.2813Z" stroke="#191918" stroke-width="2" stroke-miterlimit="10"/>
<path d="M206.514 96.5591C200.372 96.6999 195.609 92.2773 195.609 92.2773" stroke="#E56A85" stroke-miterlimit="10" stroke-linecap="round"/>
<path opacity="0.53" d="M207.661 106.547C202.407 107.019 196.312 106.826 196.312 106.826L207.661 111.41V106.547Z" fill="#DD6595"/>
<path opacity="0.53" d="M183.5 87.9998C180.84 85.2081 179.534 86.3548 179.711 89.2559C179.889 92.1571 183.386 94.2366 184.519 93.4046C185.651 92.5735 183.5 87.9998 183.5 87.9998Z" fill="#DD6595"/>
<path d="M79.4823 233.393C67.6838 229.059 61.1827 230.745 57.5703 225.929C57.5703 225.929 67.2017 224.243 72.499 225.929L79.4823 233.393Z" fill="#7C9E1E"/>
<path d="M72.4918 225.928C58.1545 218.436 53.9022 209.933 50.2574 204.061C46.6127 198.189 44.5883 193.33 43.1706 192.925C41.7528 192.519 49.0422 193.937 55.9266 200.822C62.8109 207.706 65.6455 208.719 71.112 214.185C76.5786 219.652 81.4385 227.697 82.0462 233.394H79.474L72.4918 225.928Z" fill="#B7AC15"/>
<path d="M76.5794 223.903C68.8336 212.014 75.7854 205.186 66.4555 191.709C55.5214 175.916 58.9635 160.123 60.5838 150.201C60.5838 150.201 58.1591 161.748 67.6726 172.982C77.187 184.217 86.5009 188.569 87.31 205.324C88.1202 222.081 84.8806 233.392 84.8806 233.392H79.4739L76.5794 223.903Z" fill="#7C9E1E"/>
<path d="M83.6278 233.392C81.0319 222.257 86.0943 203.25 86.4994 184.42C86.9045 165.59 76.3755 151.619 91.966 134.004C91.966 134.004 88.7264 137.244 93.1812 150.202C97.6361 163.161 107.557 176.727 102.698 194.139C97.8376 211.553 87.3666 225.814 87.4389 233.392H83.6278Z" fill="#B7AC15"/>
<path d="M87.4443 233.393C85.824 220.029 99.4624 199.201 111.004 194.545C111.004 194.545 112.218 204.781 104.727 213.128C97.2354 221.475 91.6662 233.394 91.6662 233.394H87.4443V233.393Z" fill="#A88F14"/>
<path d="M91.6562 233.391C92.164 224.509 99.8585 221.395 107.755 219.105C107.755 219.105 98.2382 228.707 96.6189 233.391H91.6562Z" fill="#426313"/>
<path opacity="0.36" d="M95.3684 234.408C96.7139 227.68 99.7472 225.565 99.1919 225.18C98.6366 224.796 95.1849 230.458 93.4505 233.394C93.4505 233.394 91.1399 225.721 94.6001 219.108C98.0604 212.496 101.328 207.498 101.328 207.498C101.328 207.498 90.1795 220.376 89.6023 226.885C89.6023 226.885 88.4489 220.343 90.3716 211.902C92.2933 203.462 97.2911 195.389 95.4654 185.394C93.6398 175.398 91.6638 164.732 91.6638 164.732C91.6638 164.732 92.4939 174.895 93.4515 183.7C94.409 192.506 91.7998 197.119 89.26 206.538C86.7202 215.956 88.1418 229.358 87.0464 229.288C85.951 229.219 84.2213 231.718 84.2213 231.718C84.2213 231.718 83.0613 217.302 81.3345 205C79.6077 192.699 79.8007 191.041 72.304 183.7C64.8073 176.36 63.8469 171.873 63.8469 171.873C63.8469 171.873 68.9094 181.934 73.1056 188.469C77.3018 195.004 78.6473 197.888 78.6473 209.421C78.6473 220.954 79.2235 227.436 80.1849 229.288C81.1462 231.142 73.0733 218.328 66.73 213.971C60.3867 209.613 55.1968 203.655 54.6206 202.693C54.0444 201.732 60.7718 213.841 65.7687 217.109C70.7665 220.378 79.4765 231.526 79.4765 231.526L65.1924 227.681L81.3354 234.409L95.3684 234.408Z" fill="#426313"/>
<path d="M108.1 236.979L100.501 280.752C100.409 281.285 100.227 281.773 99.9673 282.215C99.197 283.542 97.765 284.41 96.1485 284.41H68.809C66.6448 284.41 64.7925 282.84 64.4492 280.705L57.3234 236.933C56.8888 234.242 58.9617 231.803 61.6907 231.803H103.74C106.485 231.804 108.566 234.273 108.1 236.979Z" fill="#3A3852"/>
<path opacity="0.54" d="M99.9673 282.215C99.197 283.542 97.765 284.41 96.1485 284.41H68.809C66.6448 284.41 64.7925 282.84 64.4492 280.705L57.3234 236.933C56.8888 234.242 58.9617 231.803 61.6907 231.803H76.1497C62.7415 252.627 85.1041 276.827 99.9673 282.215Z" fill="#232433"/>
<path d="M146.067 207.314C151.67 217.455 155.933 228.38 161.254 237.753C155.424 230.802 150.007 222.372 145.792 213.128C143.095 207.217 140.834 199.789 139.18 191.828C141.537 198.167 143.96 203.503 146.067 207.314Z" fill="#FFC55A"/>
</svg>
